<?xml version="1.0" encoding="iso-8859-1"?>
<!-- Generator: Adobe Illustrator 19.0.0, SVG Export Plug-In . SVG Version: 6.00 Build 0)  -->
<svg version="1.1" id="Layer_1" xmlns="http://www.w3.org/2000/svg" xmlns:xlink="http://www.w3.org/1999/xlink" x="0px" y="0px"
	 viewBox="0 0 511.883 511.883" style="enable-background:new 0 0 511.883 511.883;" xml:space="preserve">
<polygon style="fill:#A0D468;" points="469.22,209.186 426.558,191.956 334.627,127.97 271.656,181.286 196.673,248.176 
	95.697,314.599 70.703,329.158 12.09,314.599 10.654,492.105 511.882,501.212 511.882,177.193 "/>
<g>
	<rect x="63.981" y="330.591" style="fill:#8CC153;" width="21.323" height="170.62"/>
	<rect x="127.971" y="287.931" style="fill:#8CC153;" width="21.323" height="216.62"/>
	<rect x="255.941" y="183.961" style="fill:#8CC153;" width="21.324" height="317.26"/>
	<rect x="191.951" y="245.271" style="fill:#8CC153;" width="21.323" height="255.94"/>
	<rect x="319.931" y="116.641" style="fill:#8CC153;" width="21.322" height="384.57"/>
	<rect x="447.901" y="223.951" style="fill:#8CC153;" width="21.322" height="277.26"/>
	<rect x="383.911" y="170.631" style="fill:#8CC153;" width="21.324" height="330.58"/>
</g>
<path style="fill:#E6E9ED;" d="M511.882,181.286c0-5.89-4.779-10.653-10.669-10.653c-2.952,0-5.608,1.187-7.546,3.124
	l-35.772,35.758l-120.487-100.4l-6.827,8.186l-7.53-7.529l-127.237,127.22L73.389,318.598l-48.114-19.246l-7.92,19.809L70.687,340.5
	l3.952-9.904l5.92,8.873l127.971-85.324l-5.92-8.873l7.545,7.545l121.081-121.081l120.488,100.398l6.827-8.186l7.545,7.545
	l42.646-42.662C510.679,186.91,511.882,184.238,511.882,181.286z"/>
<g>
	<path style="fill:#434A54;" d="M21.323,127.97c-5.889,0-10.669-4.78-10.669-10.67s4.78-10.653,10.669-10.653
		c5.89,0,10.67,4.764,10.67,10.653S27.212,127.97,21.323,127.97z"/>
	<path style="fill:#434A54;" d="M21.323,191.956c-5.889,0-10.669-4.78-10.669-10.67s4.78-10.653,10.669-10.653
		c5.89,0,10.67,4.764,10.67,10.653S27.212,191.956,21.323,191.956z"/>
	<path style="fill:#434A54;" d="M21.323,255.941c-5.889,0-10.669-4.78-10.669-10.67s4.78-10.653,10.669-10.653
		c5.89,0,10.67,4.764,10.67,10.653S27.212,255.941,21.323,255.941z"/>
	<path style="fill:#434A54;" d="M21.323,319.926c-5.889,0-10.669-4.781-10.669-10.67s4.78-10.654,10.669-10.654
		c5.89,0,10.67,4.766,10.67,10.654S27.212,319.926,21.323,319.926z"/>
	<path style="fill:#434A54;" d="M21.323,383.912c-5.889,0-10.669-4.78-10.669-10.67s4.78-10.654,10.669-10.654
		c5.89,0,10.67,4.765,10.67,10.654S27.212,383.912,21.323,383.912z"/>
	<path style="fill:#434A54;" d="M21.323,447.897c-5.889,0-10.669-4.78-10.669-10.67s4.78-10.653,10.669-10.653
		c5.89,0,10.67,4.764,10.67,10.653S27.212,447.897,21.323,447.897z"/>
	<path style="fill:#434A54;" d="M21.323,63.985c-5.889,0-10.669-4.78-10.669-10.67s4.78-10.653,10.669-10.653
		c5.89,0,10.67,4.764,10.67,10.653S27.212,63.985,21.323,63.985z"/>
</g>
<path style="fill:#656D78;" d="M501.213,490.559H21.323V10.669C21.323,4.779,16.543,0,10.654,0C4.764,0,0,4.779,0,10.669v490.544
	c0,5.89,4.765,10.67,10.654,10.67h490.56c5.89,0,10.669-4.78,10.669-10.67S507.103,490.559,501.213,490.559z"/>
<g>
	<circle style="fill:#F5F7FA;" cx="74.641" cy="330.591" r="31.993"/>
	<circle style="fill:#F5F7FA;" cx="202.611" cy="245.271" r="31.993"/>
	<circle style="fill:#F5F7FA;" cx="330.581" cy="117.301" r="31.993"/>
	<circle style="fill:#F5F7FA;" cx="458.551" cy="223.951" r="31.993"/>
</g>
<g>
</g>
<g>
</g>
<g>
</g>
<g>
</g>
<g>
</g>
<g>
</g>
<g>
</g>
<g>
</g>
<g>
</g>
<g>
</g>
<g>
</g>
<g>
</g>
<g>
</g>
<g>
</g>
<g>
</g>
</svg>
